<?xml version="1.0" encoding="utf-8"?>
<!-- Generator: Adobe Illustrator 15.1.0, SVG Export Plug-In . SVG Version: 6.00 Build 0)  -->
<!DOCTYPE svg PUBLIC "-//W3C//DTD SVG 1.1//EN" "http://www.w3.org/Graphics/SVG/1.1/DTD/svg11.dtd">
<svg version="1.1" xmlns="http://www.w3.org/2000/svg" xmlns:xlink="http://www.w3.org/1999/xlink" x="0px" y="0px"
	 width="595.279px" height="572.971px" viewBox="0 0 595.279 572.971" enable-background="new 0 0 595.279 572.971"
	 xml:space="preserve">
<g id="Layer_3">
</g>
<g id="Layer_2">
	<g>
		<path d="M381.667,45.564h-206c-6.657,0-109.334,5.333-124.667,114l0.667,227.333c0,7.185,16,105.334,120,111.334h218.667
			c6.657,0,102.665-10.667,113.333-118V158.897C503.667,151.711,489.667,54.231,381.667,45.564z M469.667,364.349
			c-9.076,91.336-90.775,100.412-96.44,100.412H187.151c-88.499-5.104-102.113-88.625-102.113-94.74L84.47,176.572
			c13.048-92.471,100.42-97.008,106.085-97.008h175.297c91.902,7.375,103.815,90.326,103.815,96.441V364.349z"/>
		<g>
			<ellipse cx="398.795" cy="151.23" rx="27.128" ry="27"/>
			<path d="M276.5,156.231c-64.71,0-117.167,52.383-117.167,117c0,64.618,52.457,117,117.167,117
				c64.709,0,117.167-52.383,117.167-117C393.667,208.614,341.209,156.231,276.5,156.231z M278,348.897
				c-42.158,0-76.333-34.325-76.333-76.667s34.175-76.666,76.333-76.666c42.157,0,76.333,34.325,76.333,76.666
				S320.157,348.897,278,348.897z"/>
		</g>
		<ellipse cx="398.795" cy="151.23" rx="27.128" ry="27"/>
	</g>
</g>
</svg>
