<?xml version="1.0" encoding="utf-8"?>
<!-- Generator: Adobe Illustrator 15.1.0, SVG Export Plug-In . SVG Version: 6.00 Build 0)  -->
<!DOCTYPE svg PUBLIC "-//W3C//DTD SVG 1.1//EN" "http://www.w3.org/Graphics/SVG/1.1/DTD/svg11.dtd">
<svg version="1.1" id="Layer_2" xmlns="http://www.w3.org/2000/svg" xmlns:xlink="http://www.w3.org/1999/xlink" x="0px" y="0px"
	 width="595.28px" height="572.971px" viewBox="0 0 595.28 572.971" enable-background="new 0 0 595.28 572.971"
	 xml:space="preserve">
<path d="M503.667,380.231c-10.667,107.333-106.676,118-113.333,118H171.667c-104-6-120-104.149-120-111.334L51,159.564
	c15.333-108.667,118.01-114,124.667-114l206,0c108,8.667,122,106.147,122,113.333V380.231z"/>
<path fill="#FFF" d="M469.667,364.349c-9.076,91.336-90.775,100.412-96.44,100.412H187.151
	c-88.499-5.105-102.114-88.625-102.114-94.74L84.47,176.572c13.048-92.471,100.42-97.008,106.085-97.008l175.297,0
	c91.902,7.375,103.815,90.326,103.815,96.441V364.349z"/>
<ellipse cx="276.5" cy="273.231" rx="117.167" ry="117"/>
<ellipse fill="#FFF" cx="278" cy="272.231" rx="76.333" ry="76.666"/>
<ellipse cx="398.795" cy="151.23" rx="27.128" ry="27"/>
</svg>
